<mxfile host="app.diagrams.net" modified="2024-05-09T07:35:49.559Z" agent="Mozilla/5.0 (X11; Linux x86_64) AppleWebKit/537.36 (KHTML, like Gecko) Chrome/122.0.0.0 Safari/537.36" version="24.3.1" etag="mRRrFYE_Al3y-y8sas0y" type="github">
  <diagram name="Page-1" id="ENyYQV1ROfMWEyk_amGB">
    <mxGraphModel>
      <root>
        <mxCell id="0" />
        <mxCell id="1" parent="0" />
      </root>
    </mxGraphModel>
  </diagram>
</mxfile>
